<svg height="512" viewBox="0 0 192 192" width="512" xmlns="http://www.w3.org/2000/svg" xmlns:xlink="http://www.w3.org/1999/xlink"><linearGradient id="New_Gradient_Swatch_1" gradientUnits="userSpaceOnUse" x1="66.209" x2="125.791" y1="142.06" y2="82.477"><stop offset="0" stop-color="#34cdfa"/><stop offset="1" stop-color="#e8d9f1"/></linearGradient><g id="_10-humor" data-name="10-humor"><g id="Flat"><circle cx="96" cy="96" fill="#e6f9fe" r="96"/><path d="m120 176a95.959 95.959 0 0 1 -64.542-167.006 95.981 95.981 0 1 0 105.084 158.012 95.434 95.434 0 0 1 -40.542 8.994z" fill="#ccf2fe"/><path d="m88 80h-16a8 8 0 0 0 -16 0h-16a24 24 0 0 1 48 0z" fill="#99e6fd"/><path d="m152 80h-16a8 8 0 0 0 -16 0h-16a24 24 0 0 1 48 0z" fill="#99e6fd"/><path d="m136 96h-80a8 8 0 0 0 -8 8 48 48 0 0 0 96 0 8 8 0 0 0 -8-8z" fill="url(#New_Gradient_Swatch_1)"/></g></g></svg>